<?xml version="1.0" encoding="UTF-8" standalone="no"?>
<!DOCTYPE svg PUBLIC "-//W3C//DTD SVG 1.1//EN" "http://www.w3.org/Graphics/SVG/1.1/DTD/svg11.dtd">
<svg version="1.1" xmlns="http://www.w3.org/2000/svg" xmlns:xlink="http://www.w3.org/1999/xlink" preserveAspectRatio="xMidYMid meet" viewBox="0 0 640 640" width="640" height="640"><defs><path d="M529.66 88.28L452.41 88.28L452.41 44.14L187.59 44.14L187.59 88.28L110.34 88.28L110.34 44.14L22.07 44.14L22.07 165.52L617.93 165.52L617.93 44.14L529.66 44.14L529.66 88.28Z" id="b59kv2RMh"></path><path d="M22.07 165.52L22.07 640L617.93 640L617.93 165.52L529.66 165.52L452.41 165.52L187.59 165.52L110.34 165.52L22.07 165.52Z" id="bEDAG2XyD"></path><path d="M187.59 0C187.59 0 187.59 0 187.59 0C187.59 52.97 187.59 82.39 187.59 88.28C187.59 88.28 187.59 88.28 187.59 88.28C141.24 88.28 115.49 88.28 110.34 88.28C110.34 88.28 110.34 88.28 110.34 88.28C110.34 35.31 110.34 5.89 110.34 0C110.34 0 110.34 0 110.34 0C156.69 0 182.44 0 187.59 0Z" id="c2K32SB0pE"></path><path d="M529.66 0C529.66 0 529.66 0 529.66 0C529.66 52.97 529.66 82.39 529.66 88.28C529.66 88.28 529.66 88.28 529.66 88.28C483.31 88.28 457.56 88.28 452.41 88.28C452.41 88.28 452.41 88.28 452.41 88.28C452.41 35.31 452.41 5.89 452.41 0C452.41 0 452.41 0 452.41 0C498.76 0 524.51 0 529.66 0Z" id="aa3zwwRWpK"></path></defs><g><g><g><use xlink:href="#b59kv2RMh" opacity="1" fill="#fc3952" fill-opacity="1"></use><g><use xlink:href="#b59kv2RMh" opacity="1" fill-opacity="0" stroke="#000000" stroke-width="1" stroke-opacity="0"></use></g></g><g><use xlink:href="#bEDAG2XyD" opacity="1" fill="#edeada" fill-opacity="1"></use><g><use xlink:href="#bEDAG2XyD" opacity="1" fill-opacity="0" stroke="#000000" stroke-width="1" stroke-opacity="0"></use></g></g><g><use xlink:href="#c2K32SB0pE" opacity="1" fill="#28384c" fill-opacity="1"></use><g><use xlink:href="#c2K32SB0pE" opacity="1" fill-opacity="0" stroke="#000000" stroke-width="1" stroke-opacity="0"></use></g></g><g><use xlink:href="#aa3zwwRWpK" opacity="1" fill="#28384c" fill-opacity="1"></use><g><use xlink:href="#aa3zwwRWpK" opacity="1" fill-opacity="0" stroke="#000000" stroke-width="1" stroke-opacity="0"></use></g></g></g></g></svg>